<?xml version="1.0" encoding="utf-8"?>
<!-- Generator: Adobe Illustrator 19.1.0, SVG Export Plug-In . SVG Version: 6.00 Build 0)  -->
<svg version="1.1" id="Layer_1" xmlns:sketch="http://www.bohemiancoding.com/sketch/ns"
	 xmlns="http://www.w3.org/2000/svg" xmlns:xlink="http://www.w3.org/1999/xlink" x="0px" y="0px" width="311.7px" height="440px"
	 viewBox="-305.9 -129 311.7 440" style="enable-background:new -305.9 -129 311.7 440;" xml:space="preserve">
<style type="text/css">
	.st0{fill:#1572B6;}
	.st1{fill:#33A9DC;}
	.st2{fill:#131313;}
	.st3{fill:#FFFFFF;stroke:#FFFFFF;}
</style>
<g id="Shield">
	<path id="Shape_1_" class="st0" d="M-277.5,275.7l-28.4-318.2H5.9l-28.4,318.1L-150.2,311L-277.5,275.7z"/>
	<path id="Shape_2_" class="st1" d="M-150,284l103.1-28.6l24.3-271.8H-150V284z"/>
</g>
<path id="CSS" class="st2" d="M-61.6-112.7h-25.9l26.9,29.2v13.9H-116v-16.3h26.9l-26.9-29.2V-129h54.4V-112.7L-61.6-112.7z
	 M-127-112.7h-25.9l26.9,29.2v13.9h-55.4v-16.3h26.9l-26.9-29.2V-129h54.4V-112.7L-127-112.7z M-191.7-112h-27.9v25.5h27.9v17h-47.8
	V-129h47.8V-112L-191.7-112z"/>
<path id="Lion" class="st3" d="M-214.3,25.4c5-4.8,8.3-6.1,19.8-7.2c6.2-0.6,7.9-1.4,12.2-5.8c3.9-3.9,6.4-5.7,10.7-7.5
	c5.4-2.3,9.1-2.8,20.2-2.6c10.7,0.2,16.8,0.9,24.2,2.8c9,2.4,13.5,4.1,19.2,7.5c6.2,3.7,11,7.4,7.6,5.8c-0.4-0.2-1-0.5-1.2-0.6
	c-0.3-0.2-2.9-1-7.9-2.5c-8.5-2.6-17.4-3.1-26-1.4c-12.2,2.4-22.2,7.2-30,14.3l-1.9,1.8H-180c-6.9,0-18.3,0-25.3-0.1
	c-7.3,0-12.7-0.2-12.7-0.3C-218,29.3-216,27.1-214.3,25.4z M-248.5,84.8c0.4-3.1,1.2-6.3,2.3-8.4l0.4-0.7l1.6,1.6
	c1.5,1.5,4.2,3.5,5.9,4.3c0.4,0.2,1.6,0.7,2.8,1c1.8,0.6,2.4,0.7,5.8,0.7c4.2,0,5.5-0.2,8.6-1.7c2.4-1.1,3.5-2.1,4.4-3.7
	c1.2-2.4,0.8-5.3-0.9-7c-1.9-1.9-5.5-2.8-11.4-2.8c-7.2,0-12.8,1-15.6,2.7c-0.6,0.4-1.2,0.7-1.3,0.7c-0.2,0-0.3-0.2-1.6-3.6
	c-3.4-8.9-3.4-9-3.4-10.9c0-1.3,0.1-2.1,0.5-2.9c1.1-2.4,2.5-3.4,6.1-4.3c2.9-0.7,3.3-1.1,3.1-2.9c-0.1-0.7-0.2-1.3-0.3-1.4
	c-0.2-0.4-2.9,0-4.5,0.5c-2.6,0.9-2.4,1-2.2-0.5c0.3-2.5,1-4,2.9-5.8c1.2-1.2,2.2-1.9,3.5-2.6c3.3-1.6,3.9-1.6,17.2-1.6h12l0.9,1.4
	c2,3.2,5.3,4.2,8.7,2.5c1.3-0.6,2-1.4,3-3.2l0.4-0.8l41.2,0.1l1.3,0.6c3.3,1.5,4.8,5.6,3.4,9.2c-0.6,1.4-1,2.1-2.6,4
	c-3.7,4.3-8.6,6.2-14.9,6c-3.6-0.1-3.7,0-2.8,2.4c3.1,8.2,2.9,15.9-0.7,23c-2.9,5.8-7.3,9.9-13.5,12.6c-4.8,2.1-7,2.3-22.2,2.5
	c-17.8,0.2-20.1,0.4-23.9,1.5c-3.3,1-5.3,2.2-7.6,4.7c-0.7,0.7-1.3,1.4-1.3,1.4c-0.1,0-0.3-0.2-0.6-0.5c-0.7-0.8-2.3-3.9-3-5.7
	C-248.3,93.3-248.9,88.5-248.5,84.8z M-188.3,224.2c-0.8,1.3-2.1,4-2.7,5.7c-0.2,0.4-0.6,1.9-0.9,3.2c-0.6,2.3-0.7,2.9-0.7,7.1
	c0,2.5,0.1,4.9,0.2,5.3c0.2,1.1-0.1,1-2-0.2c-0.8-0.6-1.9-1.3-2.4-1.6c-2.1-1.4-10.2-7.6-12.1-9.3c-5.7-4.9-11.9-11.2-16.3-16.8
	c-3-3.7-9.3-13.3-11-16.6c-4.4-8.8-7.3-20.3-7.7-30.4c-0.4-10.8,3.3-23.2,9.8-32.7c3-4.4,6.5-8.2,12.4-13.6
	c5.8-5.3,16.5-12.7,25.7-18.1c7.1-4.1,8-4.7,11.2-7c5.1-3.8,9.5-8,12.9-12.6c2.7-3.5,4.9-9.3,5.4-14.3c0.3-2.7,0.1-8.2-0.4-10.1
	c-0.3-1-0.3-1.4-0.1-1.6c0.2-0.1,1.2-0.5,2.3-0.7c1.1-0.3,2.9-0.9,3.9-1.3l1.9-0.8l1.7,1.8c3.1,3.4,6,8.4,7.2,12.5
	c1.1,3.6,1.4,5.7,1.5,9.7c0.3,10.1-2.8,20.7-9.1,30.7c-3.1,5-8.5,12-14.5,18.9c-0.8,0.9-2.4,2.8-3.7,4.2c-5.3,6.1-13,16.4-15.7,21.3
	c-0.4,0.7-0.9,1.6-1.3,2c-1.1,1.6-5.1,10-6,12.7c-0.9,2.5-1.8,6.5-2.4,10.7c-0.4,2.7-0.4,9.7,0.1,12.4c1.8,10.1,5.4,17.9,11.6,24.9
	c1.1,1.2,2,2.4,2,2.6C-187.5,222.7-187.9,223.5-188.3,224.2z M-151.3,185.7c0.2,1.6,0.3,3.1,0.4,3.3c0.1,0.5-0.5,1-3.8,2.9
	c-1.9,1.2-4.4,2.8-7.8,5.2c-6.1,4.2-16,13.5-19.5,18.2c-1,1.3-2,2.4-2.3,2.4c-0.2,0-1-0.8-1.9-1.8c-5.4-5.8-9.3-14.7-10.4-23.9
	c-0.9-7.3,1.4-17.5,5.8-26.3c4.5-8.9,14-21.7,24.8-33.6c5.9-6.4,8-9,10.6-13c2.2-3.2,5.6-9.6,7-12.8c2.1-4.9,3.9-10.7,4.5-14.7
	c0.6-4.3,0.7-11.2,0.2-14.2c-1.5-9.2-4-14.8-9.3-20.8c-0.6-0.7-1.1-1.4-1.1-1.6c0-0.1,0.4-0.6,0.9-1.1c0.5-0.5,1.5-1.7,2.3-2.7
	c1.9-2.6,1.8-2.5,2.6-2.4c1.7,0.4,6,2.1,8.9,3.5c7.5,3.7,13.5,8.7,19.3,16.2c2.6,3.4,6,10.2,8,16.1c2,5.9,2.4,12.2,1.4,18.8
	c-0.4,2.3-1.6,6.7-2.2,8c-0.2,0.4-0.7,1.6-1.2,2.7c-1.4,3.4-5.8,10.5-8.9,14.6c-3,3.9-7.7,9.4-10.5,12.4
	c-5.5,5.7-10.7,13.2-13.5,19.3C-150.5,168.1-152.1,177.6-151.3,185.7z M-88,153.5c-3.3,4.1-7.3,8.2-9.8,10c-2.6,1.9-13.9,7.6-19,9.7
	c-1.1,0.4-6.4,2.8-9.7,4.3c-0.8,0.4-2.4,1.1-3.6,1.6c-2,0.9-11,5.3-13.8,6.7c-1.7,0.9-2,0.9-2.2-0.1c-0.3-1.9-0.4-7.9-0.2-10.1
	c1.6-11.9,6.5-21.1,17.6-32.5c7.9-8.1,13.3-15.8,18.2-25.4c3.2-6.3,5.3-13.5,5.4-18.5c0.1-2.4-0.4-7.9-0.8-10.2
	c-0.9-4.9-3-10.8-5.6-15.5c-1.8-3.4-6.1-9.7-8.7-12.8c-1.3-1.5-3.3-3.6-4.5-4.6c-2.2-1.8-7.1-5.2-10-6.9c-2-1.2-7.1-3.4-9.9-4.3
	c-1.2-0.4-2.4-0.9-2.5-1c-0.2-0.1-0.3-0.8-0.3-1.6c0-1.9-0.5-3.8-1.4-5.4c-0.4-0.7-0.7-1.4-0.6-1.5c0.3-0.3,9.4-0.1,12.1,0.2
	c9.2,1.2,14.1,2.8,22.9,7.3c14.4,7.4,26.7,19.8,33.7,33.7c2.4,4.8,4.1,9.8,4.9,15c1.9,11.6,2,22.8,0.4,31.5c-0.6,3.3-1.7,7.3-3,11.2
	c-1.3,4.1-2.5,6.8-5.2,12.1C-84.2,147.9-87.1,152.4-88,153.5z M-53.5,118.7c-2.7,6.6-7.9,14.9-12.8,20.6c-3.4,4-13.7,13.4-13.7,12.5
	c0-0.2,0.6-1.4,1.3-2.7c2.4-4.5,5.2-11.9,6.5-17.3c0.3-1.4,1-4,1.5-5.6c1.8-6.6,2.3-12.3,1.8-21.4c-0.5-9.3-2.6-19.6-5.3-26.2
	c-2-5-5.5-11.2-7.9-14.2C-88.9,56-93.7,51.2-101,45.7c-7-5.3-13.8-8.9-21.8-11.7c-9-3.1-15.1-3.9-28.1-3.8c-4.4,0-7.7,0-7.7-0.1
	c-0.3-0.5,5-4.1,9.1-6c4.3-2,6.3-2.8,11.5-4.1c6.2-1.6,14.4-1.9,21.2-0.8c10.6,1.8,22.7,7.1,31.5,13.8c5,3.8,11.8,10.3,15,14.4
	c0.8,1,1.9,2.3,2.4,2.9c1.4,1.5,3.8,4.8,5.5,7.3c0.8,1.2,1.7,2.6,2.1,3.1c0.8,1.2,2.5,4.5,4,7.9c3.1,7,5.5,15.7,6.5,24.2
	C-48.9,101.4-50.1,110.4-53.5,118.7z"/>
</svg>
